STARTFONT 2.1
COMMENT
COMMENT Converted from OpenType font "awesome_icons.ttf" by "otf2bdf 3.0".
COMMENT
FONT -FreeType-awesome_icons-Medium-R-Normal--19-140-100-100-P-43-ISO10646-1
SIZE 14 100 100
FONTBOUNDINGBOX 25 23 -3 -4
STARTPROPERTIES 19
FOUNDRY "FreeType"
FAMILY_NAME "awesome_icons"
WEIGHT_NAME "Medium"
SLANT "R"
SETWIDTH_NAME "Normal"
ADD_STYLE_NAME ""
PIXEL_SIZE 19
POINT_SIZE 140
RESOLUTION_X 100
RESOLUTION_Y 100
SPACING "P"
AVERAGE_WIDTH 43
CHARSET_REGISTRY "ISO10646"
CHARSET_ENCODING "1"
FONT_ASCENT 15
FONT_DESCENT 3
COPYRIGHT "Typeface © (your company). 2021. All Rights Reserved"
_OTF_FONTFILE "awesome_icons.ttf"
_OTF_PSNAME "awesome_icons"
ENDPROPERTIES
CHARS 241
STARTCHAR 0000
ENCODING 0
SWIDTH 0 0
DWIDTH 0 0
BBX 0 0 0 0
BITMAP
ENDCHAR
STARTCHAR 001D
ENCODING 29
SWIDTH 0 0
DWIDTH 0 0
BBX 0 0 0 0
BITMAP
ENDCHAR
STARTCHAR 0020
ENCODING 32
SWIDTH 257 0
DWIDTH 5 0
BBX 0 0 0 0
BITMAP
ENDCHAR
STARTCHAR 0021
ENCODING 33
SWIDTH 360 0
DWIDTH 7 0
BBX 3 13 2 0
BITMAP
60
60
60
60
60
60
60
60
00
40
E0
E0
60
ENDCHAR
STARTCHAR 0022
ENCODING 34
SWIDTH 565 0
DWIDTH 11 0
BBX 7 6 2 7
BITMAP
EE
EE
EE
EE
C6
44
ENDCHAR
STARTCHAR 0023
ENCODING 35
SWIDTH 565 0
DWIDTH 11 0
BBX 9 13 1 0
BITMAP
1300
3300
3300
3300
FF80
FF80
2600
FF80
FF80
6600
6600
6400
6400
ENDCHAR
STARTCHAR 0024
ENCODING 36
SWIDTH 514 0
DWIDTH 10 0
BBX 8 16 1 -2
BITMAP
18
18
7E
FF
E2
E0
F0
7C
1E
07
07
C7
FE
7C
18
18
ENDCHAR
STARTCHAR 0025
ENCODING 37
SWIDTH 925 0
DWIDTH 18 0
BBX 16 13 1 0
BITMAP
7830
7860
CC60
CCC0
CCC0
CD9C
793E
7B63
0263
0663
0463
0C3E
081C
ENDCHAR
STARTCHAR 0026
ENCODING 38
SWIDTH 822 0
DWIDTH 16 0
BBX 14 14 1 0
BITMAP
1E00
2200
2100
2000
3000
3000
C878
8420
8620
8320
C1C0
40C0
60C4
1F3C
ENDCHAR
STARTCHAR 0027
ENCODING 39
SWIDTH 154 0
DWIDTH 3 0
BBX 1 4 1 11
BITMAP
80
80
80
80
ENDCHAR
STARTCHAR 0028
ENCODING 40
SWIDTH 360 0
DWIDTH 7 0
BBX 4 18 2 -3
BITMAP
10
20
20
40
40
C0
C0
C0
C0
C0
C0
C0
C0
40
40
20
20
10
ENDCHAR
STARTCHAR 0029
ENCODING 41
SWIDTH 360 0
DWIDTH 7 0
BBX 5 18 0 -3
BITMAP
80
40
20
20
10
10
10
10
18
18
10
10
10
10
20
20
40
40
ENDCHAR
STARTCHAR 002A
ENCODING 42
SWIDTH 514 0
DWIDTH 10 0
BBX 6 5 2 9
BITMAP
30
20
DC
30
58
ENDCHAR
STARTCHAR 002B
ENCODING 43
SWIDTH 514 0
DWIDTH 10 0
BBX 8 8 1 3
BITMAP
08
08
08
FF
08
08
08
08
ENDCHAR
STARTCHAR 002C
ENCODING 44
SWIDTH 308 0
DWIDTH 6 0
BBX 2 5 2 -2
BITMAP
C0
C0
40
80
80
ENDCHAR
STARTCHAR 002D
ENCODING 45
SWIDTH 308 0
DWIDTH 6 0
BBX 4 1 1 4
BITMAP
F0
ENDCHAR
STARTCHAR 002E
ENCODING 46
SWIDTH 257 0
DWIDTH 5 0
BBX 3 3 1 0
BITMAP
40
E0
40
ENDCHAR
STARTCHAR 002F
ENCODING 47
SWIDTH 257 0
DWIDTH 5 0
BBX 6 14 0 0
BITMAP
04
08
08
08
10
10
10
20
20
20
40
40
80
80
ENDCHAR
STARTCHAR 0030
ENCODING 48
SWIDTH 514 0
DWIDTH 10 0
BBX 9 13 1 0
BITMAP
3C00
7E00
7700
E300
E380
E380
E380
E380
E380
E300
7700
7E00
3C00
ENDCHAR
STARTCHAR 0031
ENCODING 49
SWIDTH 514 0
DWIDTH 10 0
BBX 8 12 1 0
BITMAP
3C
FC
FC
1C
1C
1C
1C
1C
1C
1C
FF
FF
ENDCHAR
STARTCHAR 0032
ENCODING 50
SWIDTH 514 0
DWIDTH 10 0
BBX 9 12 1 0
BITMAP
7C00
FE00
4700
0700
0700
0600
0E00
1C00
3800
7000
FF80
FF80
ENDCHAR
STARTCHAR 0033
ENCODING 51
SWIDTH 514 0
DWIDTH 10 0
BBX 8 13 1 0
BITMAP
7C
FE
CF
07
0F
3C
3E
0F
07
87
EF
FE
7C
ENDCHAR
STARTCHAR 0034
ENCODING 52
SWIDTH 514 0
DWIDTH 10 0
BBX 9 12 1 0
BITMAP
0F00
0F00
1F00
3F00
3700
7700
E700
FF80
FF80
0700
0700
0700
ENDCHAR
STARTCHAR 0035
ENCODING 53
SWIDTH 514 0
DWIDTH 10 0
BBX 9 12 1 0
BITMAP
7F00
7F00
7000
7000
7E00
7F00
0780
0380
0380
E780
FF00
3C00
ENDCHAR
STARTCHAR 0036
ENCODING 54
SWIDTH 514 0
DWIDTH 10 0
BBX 9 13 1 0
BITMAP
1E00
3F00
7300
E000
E000
EE00
FF00
E300
E380
E380
7700
7F00
1E00
ENDCHAR
STARTCHAR 0037
ENCODING 55
SWIDTH 514 0
DWIDTH 10 0
BBX 9 12 1 0
BITMAP
FF80
FF00
0700
0E00
0C00
1C00
1C00
1800
3800
3800
3800
3800
ENDCHAR
STARTCHAR 0038
ENCODING 56
SWIDTH 514 0
DWIDTH 10 0
BBX 9 13 1 0
BITMAP
3C00
7E00
6700
E300
6700
7E00
3E00
6F00
E380
C380
E380
7F00
3E00
ENDCHAR
STARTCHAR 0039
ENCODING 57
SWIDTH 514 0
DWIDTH 10 0
BBX 9 13 1 0
BITMAP
3C00
7E00
E700
E300
E380
E780
7F80
3B80
0300
0700
6F00
FE00
3C00
ENDCHAR
STARTCHAR 003A
ENCODING 58
SWIDTH 308 0
DWIDTH 6 0
BBX 3 10 1 0
BITMAP
60
E0
E0
40
00
00
40
E0
E0
60
ENDCHAR
STARTCHAR 003B
ENCODING 59
SWIDTH 308 0
DWIDTH 6 0
BBX 4 14 1 -4
BITMAP
60
F0
F0
60
00
00
00
F0
F0
70
30
60
E0
80
ENDCHAR
STARTCHAR 003C
ENCODING 60
SWIDTH 514 0
DWIDTH 10 0
BBX 8 9 1 3
BITMAP
03
0E
38
60
C0
70
1C
07
01
ENDCHAR
STARTCHAR 003D
ENCODING 61
SWIDTH 514 0
DWIDTH 10 0
BBX 8 4 1 5
BITMAP
FF
00
00
FF
ENDCHAR
STARTCHAR 003E
ENCODING 62
SWIDTH 514 0
DWIDTH 10 0
BBX 8 9 1 3
BITMAP
C0
70
1C
06
03
0E
38
E0
80
ENDCHAR
STARTCHAR 003F
ENCODING 63
SWIDTH 360 0
DWIDTH 7 0
BBX 4 14 2 0
BITMAP
E0
30
30
30
20
60
40
80
80
80
00
00
C0
40
ENDCHAR
STARTCHAR 0040
ENCODING 64
SWIDTH 977 0
DWIDTH 19 0
BBX 17 18 1 -4
BITMAP
01E000
0E1800
100600
200300
618100
422180
C02180
C0E180
C32180
C42180
C42180
C42100
462200
63DC00
200000
100000
0C0C00
03F000
ENDCHAR
STARTCHAR 0041
ENCODING 65
SWIDTH 1028 0
DWIDTH 20 0
BBX 12 12 0 1
BITMAP
8000
C030
A050
D0F0
C970
FFF0
BDF0
5FE0
3FC0
1F80
0B00
0600
ENDCHAR
STARTCHAR 0042
ENCODING 66
SWIDTH 977 0
DWIDTH 19 0
BBX 12 11 0 2
BITMAP
0600
0F00
1D80
3FC0
7FE0
F7F0
F9F0
F0B0
A070
C030
8010
ENDCHAR
STARTCHAR 0043
ENCODING 67
SWIDTH 1131 0
DWIDTH 22 0
BBX 21 16 1 -1
BITMAP
0071C0
00F9C0
03FDC0
07AFC0
0F77C0
3DF9E0
7BFCF0
E7FF78
CFFF98
1FFF80
1FFF80
1F8F80
1F0F80
1F0F80
1F0F80
1F0F80
ENDCHAR
STARTCHAR 0044
ENCODING 68
SWIDTH 977 0
DWIDTH 19 0
BBX 8 17 0 -2
BITMAP
18
34
34
34
34
24
2C
2C
2C
2C
4A
9E
BF
BD
5E
7E
18
ENDCHAR
STARTCHAR 0045
ENCODING 69
SWIDTH 514 0
DWIDTH 10 0
BBX 8 12 1 0
BITMAP
FF
FF
E0
E0
E0
FE
FE
E0
E0
E0
FF
FF
ENDCHAR
STARTCHAR 0046
ENCODING 70
SWIDTH 1080 0
DWIDTH 21 0
BBX 17 9 1 3
BITMAP
0FF000
1C1C00
300000
600F00
401100
C02180
C06080
C0C080
008000
ENDCHAR
STARTCHAR 0047
ENCODING 71
SWIDTH 977 0
DWIDTH 19 0
BBX 17 10 0 2
BITMAP
003000
000980
000A80
FFF080
000700
7FF800
3FC400
007A00
001400
000800
ENDCHAR
STARTCHAR 0048
ENCODING 72
SWIDTH 514 0
DWIDTH 10 0
BBX 10 22 0 -3
BITMAP
1E00
1F00
3300
3300
3300
3300
3300
3B00
3B00
3B00
3B00
3B00
3B00
7B80
6580
DEC0
DEC0
DEC0
DEC0
6180
7F80
1E00
ENDCHAR
STARTCHAR 0049
ENCODING 73
SWIDTH 360 0
DWIDTH 7 0
BBX 6 5 1 8
BITMAP
70
D8
CC
C8
78
ENDCHAR
STARTCHAR 004A
ENCODING 74
SWIDTH 771 0
DWIDTH 15 0
BBX 15 19 0 -3
BITMAP
0100
0380
07C0
0FE0
1FF0
3FD8
2398
4BBC
493C
CB7E
E27E
FE86
FC96
FD96
7994
7B84
3FF8
1FF0
07C0
ENDCHAR
STARTCHAR 004B
ENCODING 75
SWIDTH 977 0
DWIDTH 19 0
BBX 12 17 0 -2
BITMAP
0400
0600
0E00
0F00
1F00
1F80
3FC0
3FC0
7FE0
7FE0
FFF0
FFF0
DFF0
4FE0
61E0
39C0
0F00
ENDCHAR
STARTCHAR 004C
ENCODING 76
SWIDTH 565 0
DWIDTH 11 0
BBX 0 0 0 0
BITMAP
ENDCHAR
STARTCHAR 004D
ENCODING 77
SWIDTH 874 0
DWIDTH 17 0
BBX 0 0 0 0
BITMAP
ENDCHAR
STARTCHAR 004E
ENCODING 78
SWIDTH 668 0
DWIDTH 13 0
BBX 10 13 1 0
BITMAP
E1C0
F1C0
F1C0
F9C0
D9C0
DDC0
EDC0
EFC0
E6C0
E7C0
E3C0
E3C0
E1C0
ENDCHAR
STARTCHAR 004F
ENCODING 79
SWIDTH 771 0
DWIDTH 15 0
BBX 0 0 0 0
BITMAP
ENDCHAR
STARTCHAR 0050
ENCODING 80
SWIDTH 565 0
DWIDTH 11 0
BBX 0 0 0 0
BITMAP
ENDCHAR
STARTCHAR 0051
ENCODING 81
SWIDTH 771 0
DWIDTH 15 0
BBX 0 0 0 0
BITMAP
ENDCHAR
STARTCHAR 0052
ENCODING 82
SWIDTH 617 0
DWIDTH 12 0
BBX 0 0 0 0
BITMAP
ENDCHAR
STARTCHAR 0053
ENCODING 83
SWIDTH 565 0
DWIDTH 11 0
BBX 9 13 1 0
BITMAP
3E00
7F00
F700
E000
F000
FC00
7F00
1F80
0380
0380
FF80
FF00
3E00
ENDCHAR
STARTCHAR 0054
ENCODING 84
SWIDTH 668 0
DWIDTH 13 0
BBX 0 0 0 0
BITMAP
ENDCHAR
STARTCHAR 0055
ENCODING 85
SWIDTH 720 0
DWIDTH 14 0
BBX 0 0 0 0
BITMAP
ENDCHAR
STARTCHAR 0056
ENCODING 86
SWIDTH 720 0
DWIDTH 14 0
BBX 0 0 0 0
BITMAP
ENDCHAR
STARTCHAR 0057
ENCODING 87
SWIDTH 822 0
DWIDTH 16 0
BBX 16 13 0 0
BITMAP
E187
E186
73CE
73CE
73CE
73CE
77EC
36EC
366C
367C
3E7C
3C7C
1C38
ENDCHAR
STARTCHAR 0058
ENCODING 88
SWIDTH 668 0
DWIDTH 13 0
BBX 0 0 0 0
BITMAP
ENDCHAR
STARTCHAR 0059
ENCODING 89
SWIDTH 617 0
DWIDTH 12 0
BBX 0 0 0 0
BITMAP
ENDCHAR
STARTCHAR 005A
ENCODING 90
SWIDTH 565 0
DWIDTH 11 0
BBX 0 0 0 0
BITMAP
ENDCHAR
STARTCHAR 005B
ENCODING 91
SWIDTH 360 0
DWIDTH 7 0
BBX 0 0 0 0
BITMAP
ENDCHAR
STARTCHAR 005C
ENCODING 92
SWIDTH 257 0
DWIDTH 5 0
BBX 0 0 0 0
BITMAP
ENDCHAR
STARTCHAR 005D
ENCODING 93
SWIDTH 360 0
DWIDTH 7 0
BBX 0 0 0 0
BITMAP
ENDCHAR
STARTCHAR 005E
ENCODING 94
SWIDTH 514 0
DWIDTH 10 0
BBX 0 0 0 0
BITMAP
ENDCHAR
STARTCHAR 005F
ENCODING 95
SWIDTH 514 0
DWIDTH 10 0
BBX 10 1 0 -2
BITMAP
FFC0
ENDCHAR
STARTCHAR 0060
ENCODING 96
SWIDTH 514 0
DWIDTH 10 0
BBX 4 3 2 11
BITMAP
C0
60
10
ENDCHAR
STARTCHAR 0061
ENCODING 97
SWIDTH 462 0
DWIDTH 9 0
BBX 0 0 0 0
BITMAP
ENDCHAR
STARTCHAR 0062
ENCODING 98
SWIDTH 462 0
DWIDTH 9 0
BBX 0 0 0 0
BITMAP
ENDCHAR
STARTCHAR 0063
ENCODING 99
SWIDTH 462 0
DWIDTH 9 0
BBX 0 0 0 0
BITMAP
ENDCHAR
STARTCHAR 0064
ENCODING 100
SWIDTH 977 0
DWIDTH 19 0
BBX 17 16 0 -2
BITMAP
008000
008000
608200
308400
0BC800
07E000
0FF000
0FF000
FFF780
0FF000
07E000
03C000
180800
308400
608200
008000
ENDCHAR
STARTCHAR 0065
ENCODING 101
SWIDTH 1028 0
DWIDTH 20 0
BBX 17 16 0 -1
BITMAP
707E00
D9FF00
8BFF80
F7C300
070000
0F0000
0E0000
0E0000
0E0000
0E0000
0F0000
070100
07C300
03FF80
01FF80
007E00
ENDCHAR
STARTCHAR 0066
ENCODING 102
SWIDTH 257 0
DWIDTH 5 0
BBX 0 0 0 0
BITMAP
ENDCHAR
STARTCHAR 0067
ENCODING 103
SWIDTH 462 0
DWIDTH 9 0
BBX 0 0 0 0
BITMAP
ENDCHAR
STARTCHAR 0068
ENCODING 104
SWIDTH 514 0
DWIDTH 10 0
BBX 0 0 0 0
BITMAP
ENDCHAR
STARTCHAR 0069
ENCODING 105
SWIDTH 257 0
DWIDTH 5 0
BBX 0 0 0 0
BITMAP
ENDCHAR
STARTCHAR 006A
ENCODING 106
SWIDTH 257 0
DWIDTH 5 0
BBX 0 0 0 0
BITMAP
ENDCHAR
STARTCHAR 006B
ENCODING 107
SWIDTH 514 0
DWIDTH 10 0
BBX 0 0 0 0
BITMAP
ENDCHAR
STARTCHAR 006C
ENCODING 108
SWIDTH 257 0
DWIDTH 5 0
BBX 0 0 0 0
BITMAP
ENDCHAR
STARTCHAR 006D
ENCODING 109
SWIDTH 771 0
DWIDTH 15 0
BBX 0 0 0 0
BITMAP
ENDCHAR
STARTCHAR 006E
ENCODING 110
SWIDTH 977 0
DWIDTH 19 0
BBX 12 13 4 -1
BITMAP
0200
1C00
3800
7800
7800
F800
F800
F800
FC00
7E10
7FE0
3FC0
0F00
ENDCHAR
STARTCHAR 006F
ENCODING 111
SWIDTH 514 0
DWIDTH 10 0
BBX 0 0 0 0
BITMAP
ENDCHAR
STARTCHAR 0070
ENCODING 112
SWIDTH 514 0
DWIDTH 10 0
BBX 0 0 0 0
BITMAP
ENDCHAR
STARTCHAR 0071
ENCODING 113
SWIDTH 514 0
DWIDTH 10 0
BBX 0 0 0 0
BITMAP
ENDCHAR
STARTCHAR 0072
ENCODING 114
SWIDTH 360 0
DWIDTH 7 0
BBX 0 0 0 0
BITMAP
ENDCHAR
STARTCHAR 0073
ENCODING 115
SWIDTH 360 0
DWIDTH 7 0
BBX 0 0 0 0
BITMAP
ENDCHAR
STARTCHAR 0074
ENCODING 116
SWIDTH 308 0
DWIDTH 6 0
BBX 0 0 0 0
BITMAP
ENDCHAR
STARTCHAR 0075
ENCODING 117
SWIDTH 514 0
DWIDTH 10 0
BBX 0 0 0 0
BITMAP
ENDCHAR
STARTCHAR 0076
ENCODING 118
SWIDTH 462 0
DWIDTH 9 0
BBX 0 0 0 0
BITMAP
ENDCHAR
STARTCHAR 0077
ENCODING 119
SWIDTH 668 0
DWIDTH 13 0
BBX 0 0 0 0
BITMAP
ENDCHAR
STARTCHAR 0078
ENCODING 120
SWIDTH 514 0
DWIDTH 10 0
BBX 0 0 0 0
BITMAP
ENDCHAR
STARTCHAR 0079
ENCODING 121
SWIDTH 411 0
DWIDTH 8 0
BBX 0 0 0 0
BITMAP
ENDCHAR
STARTCHAR 007A
ENCODING 122
SWIDTH 360 0
DWIDTH 7 0
BBX 0 0 0 0
BITMAP
ENDCHAR
STARTCHAR 007B
ENCODING 123
SWIDTH 514 0
DWIDTH 10 0
BBX 6 17 2 -2
BITMAP
08
10
10
10
10
10
10
30
C0
30
10
10
10
10
10
10
0C
ENDCHAR
STARTCHAR 007C
ENCODING 124
SWIDTH 514 0
DWIDTH 10 0
BBX 2 19 4 -4
BITMAP
C0
C0
C0
C0
C0
C0
C0
C0
C0
C0
C0
C0
C0
C0
C0
C0
C0
C0
C0
ENDCHAR
STARTCHAR 007D
ENCODING 125
SWIDTH 514 0
DWIDTH 10 0
BBX 7 17 1 -2
BITMAP
60
10
10
10
10
10
10
10
0E
18
10
10
10
10
10
10
E0
ENDCHAR
STARTCHAR 007E
ENCODING 126
SWIDTH 514 0
DWIDTH 10 0
BBX 8 2 1 5
BITMAP
71
9F
ENDCHAR
STARTCHAR 00A0
ENCODING 160
SWIDTH 257 0
DWIDTH 5 0
BBX 0 0 0 0
BITMAP
ENDCHAR
STARTCHAR 00A1
ENCODING 161
SWIDTH 308 0
DWIDTH 6 0
BBX 0 0 0 0
BITMAP
ENDCHAR
STARTCHAR 00A2
ENCODING 162
SWIDTH 565 0
DWIDTH 11 0
BBX 0 0 0 0
BITMAP
ENDCHAR
STARTCHAR 00A3
ENCODING 163
SWIDTH 514 0
DWIDTH 10 0
BBX 8 14 1 0
BITMAP
1F
31
60
60
60
60
60
FE
30
10
10
30
61
7F
ENDCHAR
STARTCHAR 00A4
ENCODING 164
SWIDTH 514 0
DWIDTH 10 0
BBX 6 6 2 4
BITMAP
FC
8C
84
84
8C
FC
ENDCHAR
STARTCHAR 00A5
ENCODING 165
SWIDTH 617 0
DWIDTH 12 0
BBX 12 12 0 0
BITMAP
F0F0
6040
2080
1080
F9E0
0A00
FFE0
0400
0400
0400
0400
1F00
ENDCHAR
STARTCHAR 00A6
ENCODING 166
SWIDTH 514 0
DWIDTH 10 0
BBX 2 19 4 -4
BITMAP
C0
C0
C0
C0
C0
C0
C0
00
00
00
00
00
C0
C0
C0
C0
C0
C0
C0
ENDCHAR
STARTCHAR 00A7
ENCODING 167
SWIDTH 514 0
DWIDTH 10 0
BBX 6 18 2 -4
BITMAP
78
84
84
C0
E0
78
3C
CC
84
84
E8
78
3C
0C
04
84
88
70
ENDCHAR
STARTCHAR 00A8
ENCODING 168
SWIDTH 514 0
DWIDTH 10 0
BBX 5 2 2 11
BITMAP
C8
C8
ENDCHAR
STARTCHAR 00A9
ENCODING 169
SWIDTH 822 0
DWIDTH 16 0
BBX 14 14 1 0
BITMAP
0780
1860
23D0
4C48
9808
9004
9004
9004
9004
9808
4C28
23D0
1020
0FC0
ENDCHAR
STARTCHAR 00AB
ENCODING 171
SWIDTH 462 0
DWIDTH 9 0
BBX 6 5 2 2
BITMAP
24
48
90
48
24
ENDCHAR
STARTCHAR 00AC
ENCODING 172
SWIDTH 514 0
DWIDTH 10 0
BBX 8 4 1 3
BITMAP
FF
01
01
01
ENDCHAR
STARTCHAR 00AD
ENCODING 173
SWIDTH 308 0
DWIDTH 6 0
BBX 4 1 1 4
BITMAP
F0
ENDCHAR
STARTCHAR 00AE
ENCODING 174
SWIDTH 822 0
DWIDTH 16 0
BBX 14 14 1 0
BITMAP
0780
1860
2F90
44C8
8448
8444
84C4
8784
8584
84C8
4EE8
2010
1020
0FC0
ENDCHAR
STARTCHAR 00AF
ENCODING 175
SWIDTH 308 0
DWIDTH 6 0
BBX 0 0 0 0
BITMAP
ENDCHAR
STARTCHAR 00B0
ENCODING 176
SWIDTH 308 0
DWIDTH 6 0
BBX 6 6 0 8
BITMAP
30
C8
84
84
88
70
ENDCHAR
STARTCHAR 00B1
ENCODING 177
SWIDTH 514 0
DWIDTH 10 0
BBX 0 0 0 0
BITMAP
ENDCHAR
STARTCHAR 00B2
ENCODING 178
SWIDTH 514 0
DWIDTH 10 0
BBX 0 0 0 0
BITMAP
ENDCHAR
STARTCHAR 00B3
ENCODING 179
SWIDTH 514 0
DWIDTH 10 0
BBX 0 0 0 0
BITMAP
ENDCHAR
STARTCHAR 00B4
ENCODING 180
SWIDTH 514 0
DWIDTH 10 0
BBX 4 3 3 11
BITMAP
30
60
80
ENDCHAR
STARTCHAR 00B5
ENCODING 181
SWIDTH 565 0
DWIDTH 11 0
BBX 0 0 0 0
BITMAP
ENDCHAR
STARTCHAR 00B6
ENCODING 182
SWIDTH 462 0
DWIDTH 9 0
BBX 7 14 1 0
BITMAP
7E
F4
F4
F4
F4
F4
74
14
14
14
14
14
14
14
ENDCHAR
STARTCHAR 00B7
ENCODING 183
SWIDTH 257 0
DWIDTH 5 0
BBX 3 3 1 5
BITMAP
40
E0
40
ENDCHAR
STARTCHAR 00B8
ENCODING 184
SWIDTH 462 0
DWIDTH 9 0
BBX 4 4 3 -4
BITMAP
40
70
10
E0
ENDCHAR
STARTCHAR 00B9
ENCODING 185
SWIDTH 514 0
DWIDTH 10 0
BBX 0 0 0 0
BITMAP
ENDCHAR
STARTCHAR 00BA
ENCODING 186
SWIDTH 360 0
DWIDTH 7 0
BBX 0 0 0 0
BITMAP
ENDCHAR
STARTCHAR 00BB
ENCODING 187
SWIDTH 462 0
DWIDTH 9 0
BBX 6 5 1 2
BITMAP
90
48
24
48
90
ENDCHAR
STARTCHAR 00BC
ENCODING 188
SWIDTH 822 0
DWIDTH 16 0
BBX 0 0 0 0
BITMAP
ENDCHAR
STARTCHAR 00BD
ENCODING 189
SWIDTH 977 0
DWIDTH 19 0
BBX 0 0 0 0
BITMAP
ENDCHAR
STARTCHAR 00BE
ENCODING 190
SWIDTH 822 0
DWIDTH 16 0
BBX 0 0 0 0
BITMAP
ENDCHAR
STARTCHAR 00BF
ENCODING 191
SWIDTH 360 0
DWIDTH 7 0
BBX 0 0 0 0
BITMAP
ENDCHAR
STARTCHAR 00C0
ENCODING 192
SWIDTH 771 0
DWIDTH 15 0
BBX 0 0 0 0
BITMAP
ENDCHAR
STARTCHAR 00C1
ENCODING 193
SWIDTH 771 0
DWIDTH 15 0
BBX 0 0 0 0
BITMAP
ENDCHAR
STARTCHAR 00C2
ENCODING 194
SWIDTH 771 0
DWIDTH 15 0
BBX 0 0 0 0
BITMAP
ENDCHAR
STARTCHAR 00C3
ENCODING 195
SWIDTH 771 0
DWIDTH 15 0
BBX 0 0 0 0
BITMAP
ENDCHAR
STARTCHAR 00C4
ENCODING 196
SWIDTH 771 0
DWIDTH 15 0
BBX 0 0 0 0
BITMAP
ENDCHAR
STARTCHAR 00C5
ENCODING 197
SWIDTH 771 0
DWIDTH 15 0
BBX 0 0 0 0
BITMAP
ENDCHAR
STARTCHAR 00C6
ENCODING 198
SWIDTH 1028 0
DWIDTH 20 0
BBX 0 0 0 0
BITMAP
ENDCHAR
STARTCHAR 00C7
ENCODING 199
SWIDTH 668 0
DWIDTH 13 0
BBX 0 0 0 0
BITMAP
ENDCHAR
STARTCHAR 00C8
ENCODING 200
SWIDTH 565 0
DWIDTH 11 0
BBX 0 0 0 0
BITMAP
ENDCHAR
STARTCHAR 00C9
ENCODING 201
SWIDTH 565 0
DWIDTH 11 0
BBX 0 0 0 0
BITMAP
ENDCHAR
STARTCHAR 00CA
ENCODING 202
SWIDTH 565 0
DWIDTH 11 0
BBX 0 0 0 0
BITMAP
ENDCHAR
STARTCHAR 00CB
ENCODING 203
SWIDTH 565 0
DWIDTH 11 0
BBX 0 0 0 0
BITMAP
ENDCHAR
STARTCHAR 00CC
ENCODING 204
SWIDTH 308 0
DWIDTH 6 0
BBX 0 0 0 0
BITMAP
ENDCHAR
STARTCHAR 00CD
ENCODING 205
SWIDTH 308 0
DWIDTH 6 0
BBX 0 0 0 0
BITMAP
ENDCHAR
STARTCHAR 00CE
ENCODING 206
SWIDTH 308 0
DWIDTH 6 0
BBX 0 0 0 0
BITMAP
ENDCHAR
STARTCHAR 00CF
ENCODING 207
SWIDTH 308 0
DWIDTH 6 0
BBX 0 0 0 0
BITMAP
ENDCHAR
STARTCHAR 00D0
ENCODING 208
SWIDTH 720 0
DWIDTH 14 0
BBX 0 0 0 0
BITMAP
ENDCHAR
STARTCHAR 00D1
ENCODING 209
SWIDTH 771 0
DWIDTH 15 0
BBX 0 0 0 0
BITMAP
ENDCHAR
STARTCHAR 00D2
ENCODING 210
SWIDTH 771 0
DWIDTH 15 0
BBX 0 0 0 0
BITMAP
ENDCHAR
STARTCHAR 00D3
ENCODING 211
SWIDTH 771 0
DWIDTH 15 0
BBX 0 0 0 0
BITMAP
ENDCHAR
STARTCHAR 00D4
ENCODING 212
SWIDTH 771 0
DWIDTH 15 0
BBX 0 0 0 0
BITMAP
ENDCHAR
STARTCHAR 00D5
ENCODING 213
SWIDTH 771 0
DWIDTH 15 0
BBX 0 0 0 0
BITMAP
ENDCHAR
STARTCHAR 00D6
ENCODING 214
SWIDTH 771 0
DWIDTH 15 0
BBX 0 0 0 0
BITMAP
ENDCHAR
STARTCHAR 00D7
ENCODING 215
SWIDTH 514 0
DWIDTH 10 0
BBX 6 7 2 3
BITMAP
84
CC
78
30
78
CC
80
ENDCHAR
STARTCHAR 00D8
ENCODING 216
SWIDTH 771 0
DWIDTH 15 0
BBX 0 0 0 0
BITMAP
ENDCHAR
STARTCHAR 00D9
ENCODING 217
SWIDTH 720 0
DWIDTH 14 0
BBX 0 0 0 0
BITMAP
ENDCHAR
STARTCHAR 00DA
ENCODING 218
SWIDTH 720 0
DWIDTH 14 0
BBX 0 0 0 0
BITMAP
ENDCHAR
STARTCHAR 00DB
ENCODING 219
SWIDTH 720 0
DWIDTH 14 0
BBX 0 0 0 0
BITMAP
ENDCHAR
STARTCHAR 00DC
ENCODING 220
SWIDTH 720 0
DWIDTH 14 0
BBX 0 0 0 0
BITMAP
ENDCHAR
STARTCHAR 00DD
ENCODING 221
SWIDTH 617 0
DWIDTH 12 0
BBX 0 0 0 0
BITMAP
ENDCHAR
STARTCHAR 00DE
ENCODING 222
SWIDTH 565 0
DWIDTH 11 0
BBX 0 0 0 0
BITMAP
ENDCHAR
STARTCHAR 00DF
ENCODING 223
SWIDTH 617 0
DWIDTH 12 0
BBX 0 0 0 0
BITMAP
ENDCHAR
STARTCHAR 00E0
ENCODING 224
SWIDTH 462 0
DWIDTH 9 0
BBX 0 0 0 0
BITMAP
ENDCHAR
STARTCHAR 00E1
ENCODING 225
SWIDTH 462 0
DWIDTH 9 0
BBX 0 0 0 0
BITMAP
ENDCHAR
STARTCHAR 00E2
ENCODING 226
SWIDTH 462 0
DWIDTH 9 0
BBX 0 0 0 0
BITMAP
ENDCHAR
STARTCHAR 00E3
ENCODING 227
SWIDTH 462 0
DWIDTH 9 0
BBX 0 0 0 0
BITMAP
ENDCHAR
STARTCHAR 00E4
ENCODING 228
SWIDTH 462 0
DWIDTH 9 0
BBX 0 0 0 0
BITMAP
ENDCHAR
STARTCHAR 00E5
ENCODING 229
SWIDTH 462 0
DWIDTH 9 0
BBX 0 0 0 0
BITMAP
ENDCHAR
STARTCHAR 00E6
ENCODING 230
SWIDTH 720 0
DWIDTH 14 0
BBX 0 0 0 0
BITMAP
ENDCHAR
STARTCHAR 00E7
ENCODING 231
SWIDTH 462 0
DWIDTH 9 0
BBX 0 0 0 0
BITMAP
ENDCHAR
STARTCHAR 00E8
ENCODING 232
SWIDTH 462 0
DWIDTH 9 0
BBX 0 0 0 0
BITMAP
ENDCHAR
STARTCHAR 00E9
ENCODING 233
SWIDTH 462 0
DWIDTH 9 0
BBX 0 0 0 0
BITMAP
ENDCHAR
STARTCHAR 00EA
ENCODING 234
SWIDTH 462 0
DWIDTH 9 0
BBX 0 0 0 0
BITMAP
ENDCHAR
STARTCHAR 00EB
ENCODING 235
SWIDTH 462 0
DWIDTH 9 0
BBX 0 0 0 0
BITMAP
ENDCHAR
STARTCHAR 00EC
ENCODING 236
SWIDTH 257 0
DWIDTH 5 0
BBX 0 0 0 0
BITMAP
ENDCHAR
STARTCHAR 00ED
ENCODING 237
SWIDTH 257 0
DWIDTH 5 0
BBX 0 0 0 0
BITMAP
ENDCHAR
STARTCHAR 00EE
ENCODING 238
SWIDTH 257 0
DWIDTH 5 0
BBX 0 0 0 0
BITMAP
ENDCHAR
STARTCHAR 00EF
ENCODING 239
SWIDTH 257 0
DWIDTH 5 0
BBX 0 0 0 0
BITMAP
ENDCHAR
STARTCHAR 00F0
ENCODING 240
SWIDTH 565 0
DWIDTH 11 0
BBX 0 0 0 0
BITMAP
ENDCHAR
STARTCHAR 00F1
ENCODING 241
SWIDTH 565 0
DWIDTH 11 0
BBX 0 0 0 0
BITMAP
ENDCHAR
STARTCHAR 00F2
ENCODING 242
SWIDTH 514 0
DWIDTH 10 0
BBX 0 0 0 0
BITMAP
ENDCHAR
STARTCHAR 00F3
ENCODING 243
SWIDTH 514 0
DWIDTH 10 0
BBX 0 0 0 0
BITMAP
ENDCHAR
STARTCHAR 00F4
ENCODING 244
SWIDTH 514 0
DWIDTH 10 0
BBX 0 0 0 0
BITMAP
ENDCHAR
STARTCHAR 00F5
ENCODING 245
SWIDTH 514 0
DWIDTH 10 0
BBX 0 0 0 0
BITMAP
ENDCHAR
STARTCHAR 00F6
ENCODING 246
SWIDTH 514 0
DWIDTH 10 0
BBX 0 0 0 0
BITMAP
ENDCHAR
STARTCHAR 00F7
ENCODING 247
SWIDTH 514 0
DWIDTH 10 0
BBX 8 9 1 2
BITMAP
10
18
00
00
FF
00
00
18
10
ENDCHAR
STARTCHAR 00F8
ENCODING 248
SWIDTH 514 0
DWIDTH 10 0
BBX 0 0 0 0
BITMAP
ENDCHAR
STARTCHAR 00F9
ENCODING 249
SWIDTH 514 0
DWIDTH 10 0
BBX 0 0 0 0
BITMAP
ENDCHAR
STARTCHAR 00FA
ENCODING 250
SWIDTH 514 0
DWIDTH 10 0
BBX 0 0 0 0
BITMAP
ENDCHAR
STARTCHAR 00FB
ENCODING 251
SWIDTH 514 0
DWIDTH 10 0
BBX 0 0 0 0
BITMAP
ENDCHAR
STARTCHAR 00FC
ENCODING 252
SWIDTH 514 0
DWIDTH 10 0
BBX 0 0 0 0
BITMAP
ENDCHAR
STARTCHAR 00FD
ENCODING 253
SWIDTH 411 0
DWIDTH 8 0
BBX 0 0 0 0
BITMAP
ENDCHAR
STARTCHAR 00FE
ENCODING 254
SWIDTH 514 0
DWIDTH 10 0
BBX 0 0 0 0
BITMAP
ENDCHAR
STARTCHAR 00FF
ENCODING 255
SWIDTH 411 0
DWIDTH 8 0
BBX 0 0 0 0
BITMAP
ENDCHAR
STARTCHAR 0131
ENCODING 305
SWIDTH 257 0
DWIDTH 5 0
BBX 3 9 1 0
BITMAP
40
C0
40
40
40
40
40
40
E0
ENDCHAR
STARTCHAR 02C6
ENCODING 710
SWIDTH 514 0
DWIDTH 10 0
BBX 5 4 2 10
BITMAP
20
30
48
88
ENDCHAR
STARTCHAR 02C7
ENCODING 711
SWIDTH 514 0
DWIDTH 10 0
BBX 6 4 2 10
BITMAP
84
48
70
30
ENDCHAR
STARTCHAR 02C9
ENCODING 713
SWIDTH 462 0
DWIDTH 9 0
BBX 5 1 2 11
BITMAP
F8
ENDCHAR
STARTCHAR 02D8
ENCODING 728
SWIDTH 514 0
DWIDTH 10 0
BBX 5 2 2 10
BITMAP
88
78
ENDCHAR
STARTCHAR 02D9
ENCODING 729
SWIDTH 514 0
DWIDTH 10 0
BBX 2 2 4 11
BITMAP
80
C0
ENDCHAR
STARTCHAR 02DA
ENCODING 730
SWIDTH 514 0
DWIDTH 10 0
BBX 4 4 3 10
BITMAP
60
90
90
60
ENDCHAR
STARTCHAR 02DB
ENCODING 731
SWIDTH 514 0
DWIDTH 10 0
BBX 3 4 4 -4
BITMAP
40
80
80
E0
ENDCHAR
STARTCHAR 02DC
ENCODING 732
SWIDTH 514 0
DWIDTH 10 0
BBX 6 3 2 10
BITMAP
04
78
80
ENDCHAR
STARTCHAR 02DD
ENCODING 733
SWIDTH 514 0
DWIDTH 10 0
BBX 6 3 2 11
BITMAP
6C
48
90
ENDCHAR
STARTCHAR 037E
ENCODING 894
SWIDTH 308 0
DWIDTH 6 0
BBX 4 14 1 -4
BITMAP
60
F0
F0
60
00
00
00
F0
F0
70
30
60
E0
80
ENDCHAR
STARTCHAR 2013
ENCODING 8211
SWIDTH 565 0
DWIDTH 11 0
BBX 9 1 1 4
BITMAP
FF80
ENDCHAR
STARTCHAR 2014
ENCODING 8212
SWIDTH 1028 0
DWIDTH 20 0
BBX 19 1 0 4
BITMAP
FFFFE0
ENDCHAR
STARTCHAR 2018
ENCODING 8216
SWIDTH 257 0
DWIDTH 5 0
BBX 2 5 2 9
BITMAP
40
80
80
C0
C0
ENDCHAR
STARTCHAR 2019
ENCODING 8217
SWIDTH 308 0
DWIDTH 6 0
BBX 2 5 2 9
BITMAP
80
C0
40
40
80
ENDCHAR
STARTCHAR 201A
ENCODING 8218
SWIDTH 308 0
DWIDTH 6 0
BBX 2 5 2 -2
BITMAP
C0
C0
40
80
80
ENDCHAR
STARTCHAR 201C
ENCODING 8220
SWIDTH 411 0
DWIDTH 8 0
BBX 5 5 2 9
BITMAP
48
90
90
98
D8
ENDCHAR
STARTCHAR 201D
ENCODING 8221
SWIDTH 462 0
DWIDTH 9 0
BBX 5 5 2 9
BITMAP
90
D8
48
48
90
ENDCHAR
STARTCHAR 201E
ENCODING 8222
SWIDTH 462 0
DWIDTH 9 0
BBX 5 5 2 -2
BITMAP
D8
D8
48
88
90
ENDCHAR
STARTCHAR 2020
ENCODING 8224
SWIDTH 514 0
DWIDTH 10 0
BBX 8 16 1 -3
BITMAP
18
18
08
CB
FF
08
08
18
18
08
08
08
08
08
08
08
ENDCHAR
STARTCHAR 2021
ENCODING 8225
SWIDTH 514 0
DWIDTH 10 0
BBX 8 16 1 -3
BITMAP
18
18
09
FF
CB
08
08
18
18
08
08
FF
CB
08
18
18
ENDCHAR
STARTCHAR 2022
ENCODING 8226
SWIDTH 514 0
DWIDTH 10 0
BBX 6 6 2 4
BITMAP
20
78
FC
FC
F8
70
ENDCHAR
STARTCHAR 2026
ENCODING 8230
SWIDTH 977 0
DWIDTH 19 0
BBX 15 3 1 0
BITMAP
4000
E186
4102
ENDCHAR
STARTCHAR 2039
ENCODING 8249
SWIDTH 308 0
DWIDTH 6 0
BBX 3 5 2 2
BITMAP
20
40
80
40
20
ENDCHAR
STARTCHAR 203A
ENCODING 8250
SWIDTH 308 0
DWIDTH 6 0
BBX 3 5 1 2
BITMAP
80
40
20
40
80
ENDCHAR
STARTCHAR 2044
ENCODING 8260
SWIDTH 154 0
DWIDTH 3 0
BBX 9 14 -3 0
BITMAP
0080
0080
0100
0200
0200
0400
0800
0800
1000
2000
2000
4000
4000
8000
ENDCHAR
STARTCHAR 20A3
ENCODING 8355
SWIDTH 514 0
DWIDTH 10 0
BBX 10 14 0 0
BITMAP
FF80
3040
3000
3000
3000
3080
3F80
3080
3000
3000
FC00
3000
3000
7800
ENDCHAR
STARTCHAR 20A4
ENCODING 8356
SWIDTH 514 0
DWIDTH 10 0
BBX 8 14 1 0
BITMAP
1F
31
60
60
60
60
FE
FE
10
10
30
30
61
7F
ENDCHAR
STARTCHAR 20A7
ENCODING 8359
SWIDTH 977 0
DWIDTH 19 0
BBX 18 14 0 0
BITMAP
FE0000
310000
319000
309000
309180
30FE40
309440
319600
311780
3E13C0
3010C0
301040
301840
701F80
ENDCHAR
STARTCHAR 20AC
ENCODING 8364
SWIDTH 514 0
DWIDTH 10 0
BBX 11 14 0 0
BITMAP
0700
18C0
2000
2000
6000
4000
FF80
FF80
4000
6000
2000
3020
1020
0FC0
ENDCHAR
STARTCHAR 2116
ENCODING 8470
SWIDTH 1131 0
DWIDTH 22 0
BBX 0 0 0 0
BITMAP
ENDCHAR
STARTCHAR 2122
ENCODING 8482
SWIDTH 720 0
DWIDTH 14 0
BBX 0 0 0 0
BITMAP
ENDCHAR
STARTCHAR 2202
ENCODING 8706
SWIDTH 514 0
DWIDTH 10 0
BBX 8 15 1 -1
BITMAP
30
08
04
06
1A
66
43
83
83
83
81
C3
C2
64
18
ENDCHAR
STARTCHAR 2206
ENCODING 8710
SWIDTH 514 0
DWIDTH 10 0
BBX 10 13 0 1
BITMAP
0400
0C00
0C00
1200
1200
2200
2100
2100
4180
4080
4080
80C0
FFC0
ENDCHAR
STARTCHAR 220F
ENCODING 8719
SWIDTH 720 0
DWIDTH 14 0
BBX 13 18 1 -4
BITMAP
FFF8
6060
6060
6020
6020
6020
6020
6020
6020
6020
6020
6020
6020
6020
6020
6020
6060
F8F8
ENDCHAR
STARTCHAR 2211
ENCODING 8721
SWIDTH 565 0
DWIDTH 11 0
BBX 10 18 1 -4
BITMAP
FF80
6080
3040
1800
1C00
0E00
0600
0300
0180
0100
0100
0200
0400
0800
1000
2000
4040
FF80
ENDCHAR
STARTCHAR 2212
ENCODING 8722
SWIDTH 514 0
DWIDTH 10 0
BBX 8 1 1 6
BITMAP
FF
ENDCHAR
STARTCHAR 2215
ENCODING 8725
SWIDTH 154 0
DWIDTH 3 0
BBX 9 14 -3 0
BITMAP
0080
0080
0100
0200
0200
0400
0800
0800
1000
2000
2000
4000
4000
8000
ENDCHAR
STARTCHAR 2219
ENCODING 8729
SWIDTH 257 0
DWIDTH 5 0
BBX 3 3 1 5
BITMAP
40
E0
40
ENDCHAR
STARTCHAR 221A
ENCODING 8730
SWIDTH 514 0
DWIDTH 10 0
BBX 10 16 0 0
BITMAP
00C0
0080
0100
0100
0200
0200
0400
0400
0800
0800
1000
1000
A000
A000
6000
4000
ENDCHAR
STARTCHAR 221E
ENCODING 8734
SWIDTH 514 0
DWIDTH 10 0
BBX 9 8 0 3
BITMAP
0200
6700
5880
9080
9080
9080
7980
0700
ENDCHAR
STARTCHAR 222B
ENCODING 8747
SWIDTH 308 0
DWIDTH 6 0
BBX 8 19 -1 -3
BITMAP
03
05
08
08
08
08
08
08
08
18
18
10
10
10
10
10
20
A0
C0
ENDCHAR
STARTCHAR 2248
ENCODING 8776
SWIDTH 514 0
DWIDTH 10 0
BBX 8 5 1 4
BITMAP
F1
9E
00
71
9E
ENDCHAR
STARTCHAR 2264
ENCODING 8804
SWIDTH 514 0
DWIDTH 10 0
BBX 8 11 1 1
BITMAP
03
0E
18
70
C0
70
1C
07
03
00
FF
ENDCHAR
STARTCHAR 2265
ENCODING 8805
SWIDTH 514 0
DWIDTH 10 0
BBX 8 11 1 1
BITMAP
C0
70
18
0E
03
0E
38
E0
C0
00
FF
ENDCHAR
STARTCHAR F001
ENCODING 61441
SWIDTH 514 0
DWIDTH 10 0
BBX 0 0 0 0
BITMAP
ENDCHAR
STARTCHAR F002
ENCODING 61442
SWIDTH 514 0
DWIDTH 10 0
BBX 0 0 0 0
BITMAP
ENDCHAR
STARTCHAR FB01
ENCODING 64257
SWIDTH 514 0
DWIDTH 10 0
BBX 0 0 0 0
BITMAP
ENDCHAR
STARTCHAR FB02
ENCODING 64258
SWIDTH 514 0
DWIDTH 10 0
BBX 0 0 0 0
BITMAP
ENDCHAR
ENDFONT
